HIERARCHY
ROOT Hips
{
  OFFSET -12.3856 103.271 0.898128
  CHANNELS 6 Xposition Yposition Zposition Zrotation Xrotation Yrotation
  JOINT Spine
  {
    OFFSET 0 10.1816 0.1315
    CHANNELS 6 Xposition Yposition Zposition Zrotation Xrotation Yrotation
    JOINT Spine1
    {
      OFFSET 0 10.0835 -1.0008
      CHANNELS 6 Xposition Yposition Zposition Zrotation Xrotation Yrotation
      JOINT Spine2
      {
        OFFSET 0 9.1 -1.3734
        CHANNELS 6 Xposition Yposition Zposition Zrotation Xrotation Yrotation
        JOINT Neck
        {
          OFFSET 0 16.6717 -2.5162
          CHANNELS 6 Xposition Yposition Zposition Zrotation Xrotation Yrotation
          JOINT Head
          {
            OFFSET 0 9.6179 1.685
            CHANNELS 6 Xposition Yposition Zposition Zrotation Xrotation Yrotation
            JOINT HeadTop_End
            {
              OFFSET 0 17.8152 2.585
              CHANNELS 6 Xposition Yposition Zposition Zrotation Xrotation Yrotation
              End Site
              {
                OFFSET 0 0 0
              }
            }
            JOINT LeftEye
            {
              OFFSET 3.0676 6.4095 9.2836
              CHANNELS 6 Xposition Yposition Zposition Zrotation Xrotation Yrotation
              End Site
              {
                OFFSET 0 0 0
              }
            }
            JOINT RightEye
            {
              OFFSET -3.0676 6.4095 9.2835
              CHANNELS 6 Xposition Yposition Zposition Zrotation Xrotation Yrotation
              End Site
              {
                OFFSET 0 0 0
              }
            }
          }
        }
        JOINT LeftShoulder
        {
          OFFSET 4.5704 10.946 -2.628
          CHANNELS 6 Xposition Yposition Zposition Zrotation Xrotation Yrotation
          JOINT LeftArm
          {
            OFFSET 10.5924 -0.5246 -2.2321
            CHANNELS 6 Xposition Yposition Zposition Zrotation Xrotation Yrotation
            JOINT LeftForeArm
            {
              OFFSET 27.8415 -0.0001 0
              CHANNELS 6 Xposition Yposition Zposition Zrotation Xrotation Yrotation
              JOINT LeftHand
              {
                OFFSET 28.3288 0 0
                CHANNELS 6 Xposition Yposition Zposition Zrotation Xrotation Yrotation
                JOINT LeftHandThumb1
                {
                  OFFSET 2.4661 -1.575 2.6824
                  CHANNELS 6 Xposition Yposition Zposition Zrotation Xrotation Yrotation
                  JOINT LeftHandThumb2
                  {
                    OFFSET 3.2298 -1.8647 1.8647
                    CHANNELS 6 Xposition Yposition Zposition Zrotation Xrotation Yrotation
                    JOINT LeftHandThumb3
                    {
                      OFFSET 2.6526 -1.5315 1.5315
                      CHANNELS 6 Xposition Yposition Zposition Zrotation Xrotation Yrotation
                      End Site
                      {
                        OFFSET 1.9546 -1.1285 1.1285
                      }
                    }
                  }
                }
                JOINT LeftHandIndex1
                {
                  OFFSET 9.1093 -0.5171 2.2601
                  CHANNELS 6 Xposition Yposition Zposition Zrotation Xrotation Yrotation
                  JOINT LeftHandIndex2
                  {
                    OFFSET 3.6764 0 0
                    CHANNELS 6 Xposition Yposition Zposition Zrotation Xrotation Yrotation
                    JOINT LeftHandIndex3
                    {
                      OFFSET 2.8831 0 0
                      CHANNELS 6 Xposition Yposition Zposition Zrotation Xrotation Yrotation
                      End Site
                      {
                        OFFSET 2.3927 0 0
                      }
                    }
                  }
                }
                JOINT LeftHandMiddle1
                {
                  OFFSET 9.5334 0 0
                  CHANNELS 6 Xposition Yposition Zposition Zrotation Xrotation Yrotation
                  JOINT LeftHandMiddle2
                  {
                    OFFSET 3.6982 0 0
                    CHANNELS 6 Xposition Yposition Zposition Zrotation Xrotation Yrotation
                    JOINT LeftHandMiddle3
                    {
                      OFFSET 2.9509 0 0
                      CHANNELS 6 Xposition Yposition Zposition Zrotation Xrotation Yrotation
                      End Site
                      {
                        OFFSET 2.8339 0 0
                      }
                    }
                  }
                }
                JOINT LeftHandRing1
                {
                  OFFSET 9.1045 -0.0439 -1.8651
                  CHANNELS 6 Xposition Yposition Zposition Zrotation Xrotation Yrotation
                  JOINT LeftHandRing2
                  {
                    OFFSET 3.154 0 0
                    CHANNELS 6 Xposition Yposition Zposition Zrotation Xrotation Yrotation
                    JOINT LeftHandRing3
                    {
                      OFFSET 2.9377 0 0
                      CHANNELS 6 Xposition Yposition Zposition Zrotation Xrotation Yrotation
                      End Site
                      {
                        OFFSET 2.6475 0 0
                      }
                    }
                  }
                }
                JOINT LeftHandPinky1
                {
                  OFFSET 8.0778 -0.4887 -3.8061
                  CHANNELS 6 Xposition Yposition Zposition Zrotation Xrotation Yrotation
                  JOINT LeftHandPinky2
                  {
                    OFFSET 3.6 0 0
                    CHANNELS 6 Xposition Yposition Zposition Zrotation Xrotation Yrotation
                    JOINT LeftHandPinky3
                    {
                      OFFSET 2.1142 0 0
                      CHANNELS 6 Xposition Yposition Zposition Zrotation Xrotation Yrotation
                      End Site
                      {
                        OFFSET 1.9757 0 0
                      }
                    }
                  }
                }
              }
            }
          }
        }
        JOINT RightShoulder
        {
          OFFSET -4.57 10.9462 -2.628
          CHANNELS 6 Xposition Yposition Zposition Zrotation Xrotation Yrotation
          JOINT RightArm
          {
            OFFSET -10.5928 -0.5248 -2.2321
            CHANNELS 6 Xposition Yposition Zposition Zrotation Xrotation Yrotation
            JOINT RightForeArm
            {
              OFFSET -27.8415 0 0
              CHANNELS 6 Xposition Yposition Zposition Zrotation Xrotation Yrotation
              JOINT RightHand
              {
                OFFSET -28.3288 0 0.0001
                CHANNELS 6 Xposition Yposition Zposition Zrotation Xrotation Yrotation
                JOINT RightHandPinky1
                {
                  OFFSET -8.0767 -0.4885 -3.806
                  CHANNELS 6 Xposition Yposition Zposition Zrotation Xrotation Yrotation
                  JOINT RightHandPinky2
                  {
                    OFFSET -3.6 0 0.0001
                    CHANNELS 6 Xposition Yposition Zposition Zrotation Xrotation Yrotation
                    JOINT RightHandPinky3
                    {
                      OFFSET -2.1142 0 0
                      CHANNELS 6 Xposition Yposition Zposition Zrotation Xrotation Yrotation
                      End Site
                      {
                        OFFSET -1.9757 0 0
                      }
                    }
                  }
                }
                JOINT RightHandRing1
                {
                  OFFSET -9.1036 -0.0439 -1.8651
                  CHANNELS 6 Xposition Yposition Zposition Zrotation Xrotation Yrotation
                  JOINT RightHandRing2
                  {
                    OFFSET -3.154 0 0
                    CHANNELS 6 Xposition Yposition Zposition Zrotation Xrotation Yrotation
                    JOINT RightHandRing3
                    {
                      OFFSET -2.9377 0 0
                      CHANNELS 6 Xposition Yposition Zposition Zrotation Xrotation Yrotation
                      End Site
                      {
                        OFFSET -2.6475 0 0
                      }
                    }
                  }
                }
                JOINT RightHandMiddle1
                {
                  OFFSET -9.5325 0 0
                  CHANNELS 6 Xposition Yposition Zposition Zrotation Xrotation Yrotation
                  JOINT RightHandMiddle2
                  {
                    OFFSET -3.6982 0 0
                    CHANNELS 6 Xposition Yposition Zposition Zrotation Xrotation Yrotation
                    JOINT RightHandMiddle3
                    {
                      OFFSET -2.9509 0 0
                      CHANNELS 6 Xposition Yposition Zposition Zrotation Xrotation Yrotation
                      End Site
                      {
                        OFFSET -2.8339 0 0.0001
                      }
                    }
                  }
                }
                JOINT RightHandIndex1
                {
                  OFFSET -9.1083 -0.5168 2.2601
                  CHANNELS 6 Xposition Yposition Zposition Zrotation Xrotation Yrotation
                  JOINT RightHandIndex2
                  {
                    OFFSET -3.6764 0 0
                    CHANNELS 6 Xposition Yposition Zposition Zrotation Xrotation Yrotation
                    JOINT RightHandIndex3
                    {
                      OFFSET -2.8831 0 0
                      CHANNELS 6 Xposition Yposition Zposition Zrotation Xrotation Yrotation
                      End Site
                      {
                        OFFSET -2.3927 0 0
                      }
                    }
                  }
                }
                JOINT RightHandThumb1
                {
                  OFFSET -2.4648 -1.5727 2.6826
                  CHANNELS 6 Xposition Yposition Zposition Zrotation Xrotation Yrotation
                  JOINT RightHandThumb2
                  {
                    OFFSET -3.2298 -1.8647 1.8647
                    CHANNELS 6 Xposition Yposition Zposition Zrotation Xrotation Yrotation
                    JOINT RightHandThumb3
                    {
                      OFFSET -2.6526 -1.5314 1.5314
                      CHANNELS 6 Xposition Yposition Zposition Zrotation Xrotation Yrotation
                      End Site
                      {
                        OFFSET -1.9546 -1.1285 1.1285
                      }
                    }
                  }
                }
              }
            }
          }
        }
      }
    }
  }
  JOINT LeftUpLeg
  {
    OFFSET 8.2078 -6.7517 -1.5996
    CHANNELS 6 Xposition Yposition Zposition Zrotation Xrotation Yrotation
    JOINT LeftLeg
    {
      OFFSET 0 -44.3705 0.2846
      CHANNELS 6 Xposition Yposition Zposition Zrotation Xrotation Yrotation
      JOINT LeftFoot
      {
        OFFSET 0 -44.4279 -2.9822
        CHANNELS 6 Xposition Yposition Zposition Zrotation Xrotation Yrotation
        JOINT LeftToeBase
        {
          OFFSET 0 -8.7287 10.7106
          CHANNELS 6 Xposition Yposition Zposition Zrotation Xrotation Yrotation
          End Site
          {
            OFFSET 0 -0.0007 9.2781
          }
        }
      }
    }
  }
  JOINT RightUpLeg
  {
    OFFSET -8.2078 -6.7517 -1.5996
    CHANNELS 6 Xposition Yposition Zposition Zrotation Xrotation Yrotation
    JOINT RightLeg
    {
      OFFSET 0 -44.3705 0.2862
      CHANNELS 6 Xposition Yposition Zposition Zrotation Xrotation Yrotation
      JOINT RightFoot
      {
        OFFSET 0 -44.4277 -2.9838
        CHANNELS 6 Xposition Yposition Zposition Zrotation Xrotation Yrotation
        JOINT RightToeBase
        {
          OFFSET 0 -8.7287 10.7106
          CHANNELS 6 Xposition Yposition Zposition Zrotation Xrotation Yrotation
          End Site
          {
            OFFSET 0 -0.0007 9.2781
          }
        }
      }
    }
  }
}
MOTION
Frames:	4
Frame Time:	0.0333333
10.4127 101.385 2.65306 -14.5259 -0.268499 -2.33413 0 10.1816 0.1315 -0.0628923 -1.18848 -0.394277 1.77636e-015 10.0835 -1.0008 5.40904 -2.35779 -1.24105 3.9968e-015 9.1 -1.3734 5.41134 -2.37509 -1.20104 3.55271e-015 16.6717 -2.5162 2.38218 3.22586 1.31215 0 9.6179 1.685 3.86059 11.7216 8.92184 3.55271e-015 17.8152 2.585 -6.95746e-016 -1.59028e-015 -7.95139e-016 3.0676 6.4095 9.2836 -6.95746e-016 -1.59028e-015 -7.95139e-016 -3.0676 6.4095 9.2835 -6.95746e-016 -1.59028e-015 -7.95139e-016 4.5704 10.946 -2.628 4.7906 0.00330884 3.46373 10.5924 -0.5246 -2.2321 -0.335865 -8.27862 -18.442 27.8415 -0.0001 -3.55271e-015 -0.000204126 8.28209e-007 -39.4474 28.3288 0 -3.55271e-015 17.2073 -5.73122 -15.9751 2.4661 -1.575 2.6824 6.13846 -1.1463 3.8272 3.2298 -1.8647 1.8647 0.739153 4.04323 7.89737 2.6526 -1.5315 1.5315 2.53742 -0.508497 1.5998 9.1093 -0.5171 2.2601 -3.18055e-015 1.59028e-015 3.18055e-015 3.6764 2.84217e-014 -7.10543e-015 -3.18055e-015 -1.59028e-015 1.59028e-015 2.8831 -2.84217e-014 0 -1.27222e-014 3.18055e-015 1.59028e-015 9.5334 1.42109e-014 7.10543e-015 0.0159788 -1.25373e-006 -0.00192074 3.6982 0 0 -0.0159768 1.33039e-006 0.00192016 2.9509 -1.42109e-014 0 -6.36111e-015 0 -1.59028e-015 9.1045 -0.0439 -1.8651 -3.18055e-015 1.59028e-015 3.18055e-015 3.154 0 7.10543e-015 -3.18055e-015 -1.59028e-015 1.59028e-015 2.9377 0 7.10543e-015 -1.27222e-014 3.18055e-015 1.59028e-015 8.0778 -0.4887 -3.8061 0.507966 0.0179778 4.05448 3.6 1.42109e-014 -7.10543e-015 -0.507955 0.0179837 -4.05448 2.1142 0 0 -0 -1.59028e-015 -0 -4.57 10.9462 -2.628 7.52326 -1.07859 -10.6342 -10.5928 -0.5248 -2.2321 28.818 -15.979 7.99601 -27.8415 0 7.10543e-015 3.3198e-006 -5.70684e-006 29.2693 -28.3288 0 0.0001 -25.6093 1.22493 8.04249 -8.0767 -0.4885 -3.806 -7.00645e-007 2.74245e-007 -0.00159267 -3.6 0 0.0001 2.63041e-005 -4.23131e-006 0.00158976 -2.1142 0 0 -1.68083e-006 1.19084e-006 1.72413e-007 -9.1036 -0.0439 -1.8651 3.15987e-007 1.37122e-007 -2.26699e-006 -3.154 0 7.10543e-015 5.90794e-007 -5.85061e-007 2.42313e-006 -2.9377 0 -7.10543e-015 -5.90794e-007 5.85061e-007 -2.42313e-006 -9.5325 1.42109e-014 0 3.15987e-007 1.37122e-007 -2.26699e-006 -3.6982 1.42109e-014 7.10543e-015 1.79173e-005 -4.78508e-006 1.00119e-005 -2.9509 1.42109e-014 0 7.56683e-007 7.93831e-006 -0.00202655 -9.1083 -0.5168 2.2601 3.15987e-007 1.37122e-007 -2.26699e-006 -3.6764 2.84217e-014 7.10543e-015 5.90794e-007 -5.85061e-007 2.42313e-006 -2.8831 0 7.10543e-015 -5.90794e-007 5.85061e-007 -2.42313e-006 -2.4648 -1.5727 2.6826 -6.58323 -1.43646 -3.76369 -3.2298 -1.8647 1.8647 -0.219587 4.67208 -8.61486 -2.6526 -1.5314 1.5314 -2.09688 -1.27754 0.0886299 8.2078 -6.7517 -1.5996 18.7494 -6.57869 19.4414 -3.55271e-015 -44.3705 0.2846 11.7056 26.9518 3.45601 0 -44.4279 -2.9822 -14.8424 -16.97 -1.61844 0 -8.7287 10.7106 -8.33405e-007 -3.07032e-005 -5.39625e-006 -8.2078 -6.7517 -1.5996 -5.47388 -0.688857 -11.6655 -3.55271e-015 -44.3705 0.2862 -1.88651 6.18495 3.19915 0 -44.4277 -2.9838 18.8256 33.6146 -6.61564 0 -8.7287 10.7106 6.03829 -31.0285 2.84907 
10.1694 101.337 2.43734 -14.8316 -0.208656 -2.1905 1.77636e-015 10.1816 0.1315 -0.0849212 -0.927754 -0.350897 -3.55271e-015 10.0835 -1.0008 5.61551 -1.83575 -1.19257 -8.88178e-016 9.1 -1.3734 5.61745 -1.85314 -1.15869 0 16.6717 -2.5162 2.41906 3.31166 1.30807 1.77636e-015 9.6179 1.685 3.32296 10.1348 9.18725 -3.55271e-015 17.8152 2.585 -1.98785e-016 0 -0 3.0676 6.4095 9.2836 -1.98785e-016 0 -0 -3.0676 6.4095 9.2835 -1.98785e-016 0 -0 4.5704 10.946 -2.628 6.08915 0.044892 2.81555 10.5924 -0.5246 -2.2321 7.50099 -2.1687 -19.5567 27.8415 -0.0001 2.66454e-015 -0.000205801 -1.48815e-006 -32.9892 28.3288 -2.84217e-014 0 8.1601 -23.209 -3.17339 2.4661 -1.575 2.6824 6.13846 -1.1463 3.8272 3.2298 -1.8647 1.8647 0.739153 4.04323 7.89737 2.6526 -1.5315 1.5315 2.53742 -0.508497 1.5998 9.1093 -0.5171 2.2601 6.36111e-015 0 3.18055e-015 3.6764 -1.42109e-014 8.88178e-015 -0 0 3.18055e-015 2.8831 -2.84217e-014 1.77636e-015 9.54166e-015 -3.18055e-015 -3.18055e-015 9.5334 0 -7.10543e-015 0.0159788 -1.25373e-006 -0.00192074 3.6982 -2.84217e-014 -8.88178e-015 -0.0159768 1.33039e-006 0.00192016 2.9509 0 1.06581e-014 -5.29669e-031 3.18055e-015 9.54166e-015 9.1045 -0.0439 -1.8651 6.36111e-015 0 3.18055e-015 3.154 -4.26326e-014 -1.06581e-014 -0 0 3.18055e-015 2.9377 0 -3.55271e-015 9.54166e-015 -3.18055e-015 -3.18055e-015 8.0778 -0.4887 -3.8061 0.507966 0.0179778 4.05448 3.6 0 1.77636e-015 -0.507955 0.0179837 -4.05448 2.1142 -1.42109e-014 1.59872e-014 -6.36111e-015 1.59028e-015 -3.18055e-015 -4.57 10.9462 -2.628 6.79071 -0.913778 -9.81934 -10.5928 -0.5248 -2.2321 28.7367 -14.8667 8.3494 -27.8415 0 0 6.90413e-006 2.90645e-006 27.0067 -28.3288 0 0.0001 -25.4569 -2.40677 5.3217 -8.0767 -0.4885 -3.806 8.74511e-008 -4.52211e-007 -0.00159184 -3.6 -1.42109e-014 0.0001 2.63041e-005 -4.23131e-006 0.00158976 -2.1142 0 0 -1.68083e-006 1.19084e-006 1.72413e-007 -9.1036 -0.0439 -1.8651 -1.59028e-015 -3.18055e-015 4.77083e-015 -3.154 0 0 5.90794e-007 -5.85061e-007 2.42313e-006 -2.9377 0 0 -5.90794e-007 5.85061e-007 -2.42313e-006 -9.5325 1.42109e-014 1.42109e-014 -1.59028e-015 -3.18055e-015 4.77083e-015 -3.6982 -1.42109e-014 0 1.79173e-005 -4.78508e-006 1.00119e-005 -2.9509 -1.42109e-014 1.42109e-014 7.56683e-007 7.93831e-006 -0.00202655 -9.1083 -0.5168 2.2601 -1.59028e-015 -3.18055e-015 4.77083e-015 -3.6764 -1.42109e-014 -7.10543e-015 5.90794e-007 -5.85061e-007 2.42313e-006 -2.8831 1.42109e-014 0 -5.90794e-007 5.85061e-007 -2.42313e-006 -2.4648 -1.5727 2.6826 -6.58323 -1.43648 -3.76368 -3.2298 -1.8647 1.8647 -0.219587 4.67208 -8.61486 -2.6526 -1.5314 1.5314 -2.09688 -1.27754 0.0886299 8.2078 -6.7517 -1.5996 19.2459 -7.02469 18.8769 0 -44.3705 0.2846 11.7149 27.393 3.70584 0 -44.4279 -2.9822 -15.0666 -16.9232 -1.65708 -3.55271e-015 -8.7287 10.7106 1.76218e-006 -4.51328e-005 3.09558e-006 -8.2078 -6.7517 -1.5996 -5.20761 -0.932821 -12.7747 -3.55271e-015 -44.3705 0.2862 -1.73337 6.51558 3.388 0 -44.4277 -2.9838 19.0714 33.4523 -6.67633 0 -8.7287 10.7106 5.92115 -30.8569 2.7833 
9.89164 101.466 2.14334 -14.8297 -0.293778 -1.08824 3.55271e-015 10.1816 0.1315 0.128999 -0.432428 -0.513501 3.55271e-015 10.0835 -1.0008 6.21214 -0.876169 -1.57047 -8.88178e-016 9.1 -1.3734 6.21395 -0.899942 -1.54984 1.77636e-015 16.6717 -2.5162 2.06042 3.19561 1.38715 0 9.6179 1.685 1.68546 6.70594 9.5765 -3.55271e-015 17.8152 2.585 -1.98785e-016 -7.95139e-016 -0 3.0676 6.4095 9.2836 -1.98785e-016 -7.95139e-016 -0 -3.0676 6.4095 9.2835 -1.98785e-016 -7.95139e-016 -0 4.5704 10.946 -2.628 7.26832 0.0572036 2.33795 10.5924 -0.5246 -2.2321 19.1841 7.35196 -19.1268 27.8415 -0.0001 0 -0.000200119 5.86979e-007 -26.964 28.3288 0 0 -4.67603 -43.9443 -3.99199 2.4661 -1.575 2.6824 6.13846 -1.1463 3.8272 3.2298 -1.8647 1.8647 0.739153 4.04323 7.89737 2.6526 -1.5315 1.5315 2.53742 -0.508497 1.5998 9.1093 -0.5171 2.2601 -1.76556e-031 3.18055e-015 3.18055e-015 3.6764 0 -1.06581e-014 -3.18055e-015 -1.59028e-015 -0 2.8831 2.84217e-014 1.77636e-014 -3.18055e-015 0 -6.36111e-015 9.5334 0 7.10543e-015 0.0159788 -1.25373e-006 -0.00192074 3.6982 2.84217e-014 0 -0.0159768 1.33039e-006 0.00192016 2.9509 0 7.10543e-015 -1.76556e-031 -3.18055e-015 -3.18055e-015 9.1045 -0.0439 -1.8651 -1.76556e-031 3.18055e-015 3.18055e-015 3.154 -2.84217e-014 0 -3.18055e-015 -1.59028e-015 -0 2.9377 -2.84217e-014 7.10543e-015 -3.18055e-015 0 -6.36111e-015 8.0778 -0.4887 -3.8061 0.507966 0.0179778 4.05448 3.6 0 -7.10543e-015 -0.507955 0.0179837 -4.05448 2.1142 -2.84217e-014 3.55271e-015 1.76556e-031 3.18055e-015 -3.18055e-015 -4.57 10.9462 -2.628 5.08549 -0.599582 -8.13543 -10.5928 -0.5248 -2.2321 27.364 -14.1219 7.41721 -27.8415 0 -1.42109e-014 -3.08217e-006 4.92684e-006 26.9315 -28.3288 1.42109e-014 0.0001 -23.9137 -7.69803 1.64675 -8.0767 -0.4885 -3.806 -5.71921e-007 -2.57733e-006 -0.0015922 -3.6 1.42109e-014 0.0001 2.63041e-005 -4.23131e-006 0.00158976 -2.1142 0 1.42109e-014 -1.68083e-006 1.19084e-006 1.72413e-007 -9.1036 -0.0439 -1.8651 -3.33821e-007 4.86127e-008 2.62657e-007 -3.154 0 7.10543e-015 5.90794e-007 -5.85061e-007 2.42313e-006 -2.9377 1.42109e-014 -7.10543e-015 -5.90794e-007 5.85061e-007 -2.42313e-006 -9.5325 -1.42109e-014 -7.10543e-015 -3.33821e-007 4.86127e-008 2.62657e-007 -3.6982 -1.42109e-014 1.42109e-014 1.79173e-005 -4.78508e-006 1.00119e-005 -2.9509 1.42109e-014 0 7.56683e-007 7.93831e-006 -0.00202655 -9.1083 -0.5168 2.2601 -3.33821e-007 4.86127e-008 2.62657e-007 -3.6764 0 0 5.90794e-007 -5.85061e-007 2.42313e-006 -2.8831 0 0 -5.90794e-007 5.85061e-007 -2.42313e-006 -2.4648 -1.5727 2.6826 -6.58323 -1.43648 -3.76368 -3.2298 -1.8647 1.8647 -0.219587 4.67208 -8.61486 -2.6526 -1.5314 1.5314 -2.09688 -1.27754 0.0886299 8.2078 -6.7517 -1.5996 19.3458 -7.42933 18.2286 0 -44.3705 0.2846 11.7104 26.9555 3.44806 -3.55271e-015 -44.4279 -2.9822 -15.0174 -16.3485 -1.53216 -3.55271e-015 -8.7287 10.7106 1.57747e-006 -1.45398e-005 1.54542e-006 -8.2078 -6.7517 -1.5996 -5.40175 -0.761106 -13.4516 -3.55271e-015 -44.3705 0.2862 -1.09378 6.47506 2.24366 0 -44.4277 -2.9838 19.254 34.2553 -6.88814 0 -8.7287 10.7106 5.75248 -31.1693 2.73981 
9.65847 101.877 1.80515 -14.2651 -0.372465 0.895833 1.77636e-015 10.1816 0.1315 0.568246 0.260206 -0.809996 -1.77636e-015 10.0835 -1.0008 7.03726 0.452504 -2.20096 -1.11022e-016 9.1 -1.3734 7.03919 0.419828 -2.19973 0 16.6717 -2.5162 1.38352 2.75145 1.4765 0 9.6179 1.685 -0.391679 1.98399 9.56935 0 17.8152 2.585 -6.95746e-016 0 -0 3.0676 6.4095 9.2836 -6.95746e-016 0 -0 -3.0676 6.4095 9.2835 -6.95746e-016 0 -0 4.5704 10.946 -2.628 8.70112 0.0493626 1.82761 10.5924 -0.5246 -2.2321 26.9544 17.6002 -16.8753 27.8415 -0.0001 1.42109e-014 -0.000211724 -1.22281e-005 -30.3772 28.3288 0 1.42109e-014 -22.3242 -51.9406 -16.0608 2.4661 -1.575 2.6824 6.13846 -1.1463 3.8272 3.2298 -1.8647 1.8647 0.739153 4.04323 7.89737 2.6526 -1.5315 1.5315 2.53742 -0.508497 1.5998 9.1093 -0.5171 2.2601 1.59028e-015 2.38542e-015 6.36111e-015 3.6764 2.84217e-014 0 7.95139e-016 -3.18055e-015 -0 2.8831 0 -3.55271e-015 7.95139e-016 -2.38542e-015 -0 9.5334 2.84217e-014 0 0.0159788 -1.25373e-006 -0.00192074 3.6982 0 7.10543e-015 -0.0159768 1.33039e-006 0.00192016 2.9509 2.84217e-014 0 2.38542e-015 2.38542e-015 -1.27222e-014 9.1045 -0.0439 -1.8651 1.59028e-015 2.38542e-015 6.36111e-015 3.154 0 -3.55271e-015 7.95139e-016 -3.18055e-015 -0 2.9377 0 3.55271e-015 7.95139e-016 -2.38542e-015 -0 8.0778 -0.4887 -3.8061 0.507966 0.0179778 4.05448 3.6 0 3.55271e-015 -0.507955 0.0179837 -4.05448 2.1142 0 3.55271e-015 -7.95139e-016 0 -6.36111e-015 -4.57 10.9462 -2.628 2.47063 -0.215234 -5.52924 -10.5928 -0.5248 -2.2321 24.6478 -11.1256 3.49728 -27.8415 2.84217e-014 -3.55271e-015 8.44149e-006 -5.51524e-006 29.759 -28.3288 0 0.0001 -20.7659 -14.3946 -1.36274 -8.0767 -0.4885 -3.806 -7.94927e-007 -4.12966e-006 -0.001592 -3.6 0 0.0001 2.63041e-005 -4.23131e-006 0.00158976 -2.1142 -1.42109e-014 0 -1.68083e-006 1.19084e-006 1.72413e-007 -9.1036 -0.0439 -1.8651 1.59028e-015 -3.18055e-015 -3.18055e-015 -3.154 0 0 5.90794e-007 -5.85061e-007 2.42313e-006 -2.9377 1.42109e-014 7.10543e-015 -5.90794e-007 5.85061e-007 -2.42313e-006 -9.5325 0 0 1.59028e-015 -3.18055e-015 -3.18055e-015 -3.6982 0 7.10543e-015 1.79173e-005 -4.78508e-006 1.00119e-005 -2.9509 -1.42109e-014 -7.10543e-015 7.56683e-007 7.93831e-006 -0.00202655 -9.1083 -0.5168 2.2601 1.59028e-015 -3.18055e-015 -3.18055e-015 -3.6764 1.42109e-014 0 5.90794e-007 -5.85061e-007 2.42313e-006 -2.8831 1.42109e-014 0 -5.90794e-007 5.85061e-007 -2.42313e-006 -2.4648 -1.5727 2.6826 -6.58323 -1.43647 -3.76369 -3.2298 -1.8647 1.8647 -0.219587 4.67208 -8.61486 -2.6526 -1.5314 1.5314 -2.09688 -1.27754 0.0886299 8.2078 -6.7517 -1.5996 18.5656 -7.64134 17.6948 0 -44.3705 0.2846 11.6146 25.0717 3.13368 3.55271e-015 -44.4279 -2.9822 -14.5688 -14.9198 -1.2041 0 -8.7287 10.7106 -2.88027e-006 -0.0868063 -3.06873e-006 -8.2078 -6.7517 -1.5996 -6.1264 -0.396856 -13.6011 7.10543e-015 -44.3705 0.2862 -0.24624 5.96352 -0.227179 0 -44.4277 -2.9838 18.703 36.4493 -7.0729 -3.55271e-015 -8.7287 10.7106 5.70557 -32.2531 2.816 
